<svg id="visual" viewBox="0 0 900 600" width="900" height="600" xmlns="http://www.w3.org/2000/svg" xmlns:xlink="http://www.w3.org/1999/xlink" version="1.1"><path d="M0 37L75 33C150 29 300 21 450 26C600 31 750 49 825 58L900 67L900 0L825 0C750 0 600 0 450 0C300 0 150 0 75 0L0 0Z" fill="#a8a89e"></path><path d="M0 79L75 81C150 83 300 87 450 88C600 89 750 87 825 86L900 85L900 65L825 56C750 47 600 29 450 24C300 19 150 27 75 31L0 35Z" fill="#919187"></path><path d="M0 121L75 119C150 117 300 113 450 115C600 117 750 125 825 129L900 133L900 83L825 84C750 85 600 87 450 86C300 85 150 81 75 79L0 77Z" fill="#7b7b72"></path><path d="M0 163L75 174C150 185 300 207 450 215C600 223 750 217 825 214L900 211L900 131L825 127C750 123 600 115 450 113C300 111 150 115 75 117L0 119Z" fill="#66665c"></path><path d="M0 187L75 197C150 207 300 227 450 242C600 257 750 267 825 272L900 277L900 209L825 212C750 215 600 221 450 213C300 205 150 183 75 172L0 161Z" fill="#515148"></path><path d="M0 415L75 400C150 385 300 355 450 340C600 325 750 325 825 325L900 325L900 275L825 270C750 265 600 255 450 240C300 225 150 205 75 195L0 185Z" fill="#3d3d35"></path><path d="M0 457L75 445C150 433 300 409 450 389C600 369 750 353 825 345L900 337L900 323L825 323C750 323 600 323 450 338C300 353 150 383 75 398L0 413Z" fill="#2b2b23"></path><path d="M0 559L75 554C150 549 300 539 450 534C600 529 750 529 825 529L900 529L900 335L825 343C750 351 600 367 450 387C300 407 150 431 75 443L0 455Z" fill="#191911"></path><path d="M0 601L75 601C150 601 300 601 450 601C600 601 750 601 825 601L900 601L900 527L825 527C750 527 600 527 450 532C300 537 150 547 75 552L0 557Z" fill="#000000"></path></svg>